<svg width="794" height="165" viewBox="0 0 794 165" fill="none" xmlns="http://www.w3.org/2000/svg">
<path d="M12 112V52H48V64H60V100H48V112H12ZM24 76H47.52V64H24V76ZM24 100H47.52V88H24V100ZM84 112V64H96V52H120V64H132V112H120V88H96V112H84ZM96 76H120V64.48H96V76ZM156 112V52H192V64H204V100H192V112H156ZM168 100H191.52V64H168V100ZM228 112V52H240V64H252V76H264V88H252V76H240V112H228ZM276 112V76H264V64H276V52H288V112H276ZM312 112V64H324V52H348V64H360V112H348V88H324V112H312ZM324 76H348V64.48H324V76ZM396 112V64H384V52H420V64H408V112H396ZM456 112V64H444V52H480V64H468V112H456ZM516 112V100H504V64H516V52H540V64H552V100H540V112H516ZM516 99.52H540V64.48H516V99.52ZM576 112V52H588V64H600V76H612V88H624V52H636V112H624V100H612V88H600V76H588V112H576Z" fill="white"/>
<line x1="671.416" y1="20" x2="671.416" y2="141" stroke="#A2BD9E" stroke-width="10"/>
<line y1="-5" x2="53.2896" y2="-5" transform="matrix(0.978566 -0.205935 0.21772 0.976011 670.435 21.4159)" stroke="#A2BD9E" stroke-width="10"/>
<line y1="-5" x2="44.7197" y2="-5" transform="matrix(-0.330393 -0.943843 0.949561 -0.313581 792.982 80.5076)" stroke="#A2BD9E" stroke-width="10"/>
<line y1="-5" x2="59.6071" y2="-5" transform="matrix(-0.86027 -0.509839 0.53195 -0.846776 772.123 32.3901)" stroke="#A2BD9E" stroke-width="10"/>
<line y1="-5" x2="129.83" y2="-5" transform="matrix(-0.883648 0.468151 -0.489651 -0.871919 781.724 79)" stroke="#A2BD9E" stroke-width="10"/>
<line y1="-5" x2="141.189" y2="-5" transform="matrix(-0.344722 0.938705 -0.944901 -0.327358 716.499 8.75334)" stroke="#A2BD9E" stroke-width="10"/>
<line y1="-5" x2="151.992" y2="-5" transform="matrix(-0.69762 0.716468 -0.736451 -0.676491 772.123 32.3901)" stroke="#A2BD9E" stroke-width="10"/>
<rect width="12.1105" height="29.7741" transform="matrix(0.510963 -0.859603 0.872218 0.489117 666.959 121.94)" fill="#A2BD9E"/>
<path d="M675.067 147.195C671.056 149.322 666.218 146.573 666.162 142.135L665.884 120.302C665.825 115.671 670.973 112.701 675.045 115.015L695.053 126.383C699.126 128.697 698.982 134.512 694.797 136.731L675.067 147.195Z" fill="#D9D9D9"/>
<path d="M666.098 126.044L665.977 109.528L681.083 118.238L666.098 126.044Z" fill="#D9D9D9"/>
<path d="M689.081 139.59L688.853 122.535L704.58 131.571L689.081 139.59Z" fill="#D9D9D9"/>
<ellipse cx="669.416" cy="19" rx="3" ry="6" fill="#A2BD9E"/>
<path d="M793.416 82.6364C793.416 85.9166 786.091 89 783.636 89C781.181 89 783.191 84.2196 783.191 80.9394C783.191 77.6592 785.182 75 787.637 75C790.092 75 793.416 79.3561 793.416 82.6364Z" fill="#A2BD9E"/>
</svg>
