<svg width="150" height="165" viewBox="0 0 150 165" fill="none" xmlns="http://www.w3.org/2000/svg">
<line x1="27.4163" y1="20" x2="27.4163" y2="141" stroke="#A2BD9E" stroke-width="10"/>
<line y1="-5" x2="53.2896" y2="-5" transform="matrix(0.978566 -0.205935 0.21772 0.976011 26.4355 21.4159)" stroke="#A2BD9E" stroke-width="10"/>
<line y1="-5" x2="44.7197" y2="-5" transform="matrix(-0.330393 -0.943843 0.949561 -0.313581 148.982 80.5076)" stroke="#A2BD9E" stroke-width="10"/>
<line y1="-5" x2="59.6071" y2="-5" transform="matrix(-0.86027 -0.509839 0.53195 -0.846776 128.123 32.3901)" stroke="#A2BD9E" stroke-width="10"/>
<line y1="-5" x2="129.83" y2="-5" transform="matrix(-0.883648 0.468151 -0.489651 -0.871919 137.724 79)" stroke="#A2BD9E" stroke-width="10"/>
<line y1="-5" x2="141.189" y2="-5" transform="matrix(-0.344722 0.938705 -0.944901 -0.327358 72.499 8.75334)" stroke="#A2BD9E" stroke-width="10"/>
<line y1="-5" x2="151.992" y2="-5" transform="matrix(-0.69762 0.716468 -0.736451 -0.676491 128.123 32.3901)" stroke="#A2BD9E" stroke-width="10"/>
<rect width="12.1105" height="29.7741" transform="matrix(0.510963 -0.859603 0.872218 0.489117 22.959 121.94)" fill="#A2BD9E"/>
<path d="M31.0672 147.195C27.0565 149.322 22.2182 146.573 22.1617 142.135L21.8839 120.302C21.825 115.671 26.9725 112.701 31.0451 115.015L51.0531 126.383C55.1257 128.697 54.982 134.512 50.7974 136.731L31.0672 147.195Z" fill="#D9D9D9"/>
<path d="M22.0982 126.044L21.9771 109.528L37.0832 118.238L22.0982 126.044Z" fill="#D9D9D9"/>
<path d="M45.0807 139.59L44.8528 122.535L60.5798 131.571L45.0807 139.59Z" fill="#D9D9D9"/>
<ellipse cx="25.4163" cy="19" rx="3" ry="6" fill="#A2BD9E"/>
<path d="M149.416 82.6364C149.416 85.9166 142.091 89 139.636 89C137.181 89 139.191 84.2196 139.191 80.9394C139.191 77.6592 141.182 75 143.637 75C146.092 75 149.416 79.3561 149.416 82.6364Z" fill="#A2BD9E"/>
</svg>
